<?xml version="1.0" encoding="UTF-8"?>
<svg width="190px" height="30px" viewBox="0 0 190 30" version="1.1" xmlns="http://www.w3.org/2000/svg" xmlns:xlink="http://www.w3.org/1999/xlink">
    <title>Group 19</title>
    <defs>
        <polygon id="path-1" points="0.2395 0.386 7.5045 0.386 7.5045 6.2039 0.2395 6.2039"></polygon>
        <polygon id="path-3" points="0.6994 0.2577 6.214 0.2577 6.214 5.18603353 0.6994 5.18603353"></polygon>
    </defs>
    <g id="Page-1" stroke="none" stroke-width="1" fill="none" fill-rule="evenodd">
        <g id="Artboard" transform="translate(-205.000000, -95.000000)">
            <g id="Group-19" transform="translate(205.000000, 95.000000)">
                <path d="M71.481,13.9872 L71.481,22.6192 C71.481,22.7272 71.474,22.7372 71.416,22.8012 C70.159,24.1822 66.963,25.3172 63.131,25.3172 C56.66,25.3172 53.544,20.2332 53.544,14.0542 C53.544,6.4112 58.643,2.9052 63.482,2.9052 C66.356,2.9052 68.931,3.5242 70.861,5.6022 C70.918,5.6632 70.924,5.6822 70.924,5.7922 L70.924,11.5202 C70.924,11.5602 70.88,11.5742 70.857,11.5402 C69.354,9.5222 67.406,8.3192 64.753,8.3192 C60.759,8.3192 59.231,11.3742 59.231,14.5992 C59.231,17.7192 60.289,20.5932 63.555,20.5932 C64.473,20.5932 65.211,20.3722 65.747,19.8872 C65.769,19.8682 65.794,19.8102 65.794,19.7432 L65.794,17.5222 C65.794,15.4052 65.242,14.2412 65.102,13.9782 C65.078,13.9362 65.089,13.9092 65.14,13.9092 L71.414,13.9092 C71.47,13.9092 71.481,13.9262 71.481,13.9872" id="Fill-1" fill="#503B74"></path>
                <path d="M105.4766,6.3329 C102.2806,6.3329 100.5766,7.8799 99.7686,9.9829 C98.4126,7.4289 95.2146,6.3329 90.7216,6.3329 C84.7846,6.3329 81.0376,7.9109 79.4216,9.7099 L79.3626,9.7099 L79.3626,6.9209 C79.3626,6.8689 79.3506,6.8529 79.2996,6.8529 L74.0126,6.8529 C73.9736,6.8529 73.9476,6.8659 73.9476,6.9179 L73.9476,24.7279 C73.9476,24.7819 73.9596,24.7989 74.0086,24.7989 L79.6396,24.7989 C79.6916,24.7989 79.7086,24.7819 79.7086,24.7279 L79.7086,21.5669 C79.7086,16.3319 81.2776,13.8859 83.5306,11.8719 C85.0256,10.5389 87.5946,9.4379 89.8756,9.4379 C94.3006,9.4379 94.9556,11.5299 94.9556,14.5629 C94.9556,19.7159 92.8156,21.2039 90.8656,21.2039 C89.7066,21.2039 88.8456,20.3529 88.8456,19.0729 C88.8456,17.7939 89.6176,16.6879 91.1296,15.9279 C92.0716,15.4559 93.2286,15.3569 93.6376,15.3089 C93.7086,15.2999 93.7196,15.2929 93.7246,15.2289 C93.7886,14.2039 93.6006,12.6739 93.4226,12.2849 C93.4026,12.2439 93.3876,12.2319 93.3266,12.2369 C92.7716,12.2739 90.8166,12.4399 88.7636,13.2389 C85.5506,14.4949 83.1306,17.1849 83.1306,20.4869 C83.1306,23.4679 85.3916,25.3169 88.8496,25.3169 C92.2376,25.3169 94.1166,23.8859 94.9306,22.9789 L94.9556,22.9789 L94.9556,29.5359 C94.9556,29.5979 94.9746,29.6139 95.0406,29.6139 L100.4226,29.6139 C100.4806,29.6139 100.4976,29.5939 100.4976,29.5399 L100.4976,16.0549 C100.4976,13.8699 101.2016,11.3169 103.6726,11.3169 C106.0046,11.3169 106.4966,13.8189 106.4966,16.0069 C106.4966,18.7449 105.5116,20.6649 103.6116,20.6649 C102.8486,20.6649 102.2546,20.4209 101.8056,20.0109 C101.7776,19.9829 101.7506,19.9929 101.7506,20.0339 L101.7506,23.5599 C101.7506,23.6199 101.7656,23.6649 101.8096,23.7079 C102.7476,24.6369 104.0516,25.3169 105.3716,25.3169 C108.0806,25.3169 111.8106,23.0829 111.8106,14.8749 C111.8106,10.5189 109.9056,6.3329 105.4766,6.3329" id="Fill-3" fill="#503B74"></path>
                <path d="M145.6255,20.8593 L145.6255,17.5983 C145.6255,17.5533 145.5995,17.5673 145.5865,17.5903 C144.5755,19.5303 142.7685,20.7963 140.0755,20.7963 C136.7365,20.7963 134.3965,18.4423 134.3965,14.4403 C134.3965,11.3563 135.6665,7.8413 140.1605,7.8413 C142.7095,7.8413 144.6805,9.5573 145.5095,11.3033 C145.5255,11.3443 145.5665,11.3443 145.5665,11.2823 L145.5665,7.1363 C145.5665,7.0703 145.5535,7.0333 145.5145,6.9843 C144.1885,5.3783 141.9215,4.1943 139.4955,4.1943 C133.5765,4.1943 130.8295,8.0123 130.8295,14.0383 C130.8295,19.3783 133.6655,23.8913 139.4955,23.8913 C142.9055,23.8913 144.8645,22.3113 145.5975,20.9913 C145.6155,20.9613 145.6255,20.9263 145.6255,20.8593 M135.9225,14.4403 C135.9225,17.4673 137.5535,19.3913 140.0755,19.3913 C143.0415,19.3913 144.3435,17.2763 144.9175,16.1823 C144.9415,16.1393 144.9625,16.1143 145.0245,16.1143 L146.3825,16.1143 C146.8395,16.1143 147.0295,16.2973 147.0295,16.8443 L147.0295,21.3563 C147.0295,21.4183 147.0215,21.4533 146.9975,21.5033 C146.4985,22.5383 144.6015,25.4113 139.4955,25.4113 C132.3135,25.4113 129.2405,20.3683 129.2405,14.0383 C129.2405,6.5223 133.0115,2.7713 139.4955,2.7713 C142.3495,2.7713 144.9085,3.8893 146.9575,6.3403 C147.0015,6.3933 147.0295,6.4373 147.0295,6.5133 L147.0295,13.0563 C147.0295,13.4493 146.8815,13.6803 146.4855,13.6803 L145.2715,13.6803 C145.1725,13.6803 145.1615,13.6593 145.1325,13.6043 C145.1035,13.5463 144.5905,12.5693 144.5905,12.5693 C143.6295,10.8933 142.1815,9.4863 140.1605,9.4863 C138.3415,9.4863 135.9225,10.3383 135.9225,14.4403" id="Fill-5" fill="#503B74"></path>
                <g id="Group-9" transform="translate(148.000000, 0.614300)">
                    <mask id="mask-2" fill="white">
                        <use xlink:href="#path-1"></use>
                    </mask>
                    <g id="Clip-8"></g>
                    <path d="M5.8785,3.2889 C5.8785,2.0689 5.2305,1.7789 3.8705,1.7789 C2.5085,1.7789 1.8615,2.0689 1.8615,3.2889 C1.8615,4.2249 2.4415,4.7999 3.8705,4.7999 C5.2975,4.7999 5.8785,4.2249 5.8785,3.2889 M7.5045,3.2179 C7.5045,4.0679 7.0795,6.2039 3.8715,6.2039 C0.6645,6.2039 0.2395,4.0679 0.2395,3.2179 C0.2395,0.3859 2.8995,0.3859 3.8715,0.3859 C4.8435,0.3859 7.5045,0.3859 7.5045,3.2179" id="Fill-7" fill="#503B74" mask="url(#mask-2)"></path>
                </g>
                <path d="M182.0767,8.2274 L178.9187,8.2274 C178.8477,8.2274 178.8137,8.2484 178.7877,8.3274 C178.3587,9.5394 174.8637,19.4244 174.8497,19.4684 C174.8297,19.5194 174.7847,19.5174 174.7707,19.4684 C174.7597,19.4244 170.6757,8.3314 170.6617,8.2954 C170.6427,8.2434 170.6047,8.2274 170.5507,8.2274 L162.7117,8.2274 C162.6597,8.2274 162.6457,8.1974 162.6487,8.1434 C162.6607,7.5344 162.7507,3.7044 162.7507,3.6594 C162.7507,3.6124 162.7377,3.5814 162.6747,3.5814 L161.6067,3.5814 C161.5637,3.5814 161.5377,3.5944 161.5237,3.6394 C160.2227,7.3134 157.2957,9.6594 152.0017,9.6594 C151.4497,9.6594 150.5707,9.5784 150.2147,9.4124 C150.1917,9.4014 150.1697,9.4014 150.1697,9.4354 L150.1697,23.1924 C150.1697,23.2194 150.1737,23.2274 150.2017,23.2274 L153.5557,23.2274 C153.5767,23.2274 153.5887,23.2194 153.5887,23.1944 L153.5887,11.0494 C153.5887,10.9834 153.6177,10.9524 153.7157,10.9524 L159.2247,10.9524 C159.3027,10.9524 159.3627,10.9754 159.3627,11.0634 C159.3627,11.1554 159.2047,15.7934 159.2047,18.8124 C159.2047,22.1064 160.4797,23.8844 163.6677,23.8844 C165.5567,23.8844 166.9307,22.9844 167.3687,22.4774 C167.3947,22.4464 167.4087,22.4244 167.4087,22.3424 L167.4087,19.7954 C167.4087,19.7564 167.3787,19.7624 167.3677,19.7854 C166.9667,20.5344 166.1307,21.2254 164.9827,21.2254 C163.1557,21.2254 162.4547,20.0404 162.4547,17.9254 C162.4547,15.6484 162.5897,13.3474 162.5897,11.0444 C162.5897,10.9694 162.6487,10.9524 162.7017,10.9524 C162.7507,10.9524 168.1577,10.9434 168.2297,10.9434 C168.2847,10.9434 168.3167,10.9554 168.3397,11.0164 C168.3637,11.0814 172.6547,22.8324 173.0447,23.9054 C173.0627,23.9564 173.0597,23.9964 173.0417,24.0404 C173.0257,24.0884 171.6587,27.9594 171.6357,28.0204 C171.6127,28.0844 171.6067,28.1054 171.6817,28.1054 L175.0497,28.1054 C175.1197,28.1054 175.1487,28.0784 175.1637,28.0304 C175.1767,27.9934 182.1277,8.4204 182.1567,8.3404 C182.1857,8.2584 182.1397,8.2274 182.0767,8.2274 M184.0737,7.4624 C183.9807,7.7764 176.8177,27.8984 176.2537,29.4714 C176.2257,29.5564 176.1697,29.5704 176.1067,29.5704 L169.5947,29.5704 C169.5417,29.5704 169.5207,29.5404 169.5387,29.4984 C169.7417,28.9404 171.4817,24.1964 171.4977,24.1494 C171.5207,24.0914 171.5247,24.0654 171.4997,24.0024 C171.0927,22.8734 167.6647,13.4654 167.2667,12.5144 C167.2487,12.4744 167.2247,12.4504 167.1637,12.4504 L164.1777,12.4504 C164.1057,12.4504 164.0857,12.4914 164.0837,12.5144 C164.0647,13.5304 163.9767,17.8134 163.9767,17.8134 C163.9767,19.4794 164.5007,19.7704 165.1697,19.7704 C165.8097,19.7704 166.3457,19.1404 166.6067,18.3694 C166.6187,18.3294 166.6497,18.3184 166.6967,18.3184 L168.1577,18.3184 C168.5287,18.3184 168.8057,18.4984 168.8057,18.9604 L168.8057,22.9234 C168.8057,22.9974 168.8007,23.0304 168.7647,23.0744 C168.1357,23.8714 166.6317,25.3094 163.5887,25.3094 C159.6537,25.3094 157.6777,23.4144 157.6777,18.9054 C157.6777,16.8014 157.7977,13.0634 157.7757,12.5414 C157.7727,12.4744 157.7627,12.4504 157.6977,12.4504 L155.1637,12.4504 C155.1167,12.4504 155.0997,12.4504 155.0997,12.5144 L155.0997,24.7454 C155.0997,24.8054 155.0777,24.8264 155.0227,24.8264 L148.7297,24.8264 C148.6837,24.8264 148.6417,24.8264 148.6417,24.7354 L148.6417,7.6264 C148.6417,7.5884 148.6687,7.5814 148.6967,7.5914 C148.9327,7.6964 150.2337,8.2374 151.9247,8.2374 C156.0207,8.2374 159.1627,6.5844 160.3497,2.2384 C160.3617,2.1904 160.3917,2.1684 160.4737,2.1684 L163.8707,2.1684 C164.1777,2.1684 164.3227,2.3564 164.3167,2.6334 C164.3107,2.9054 164.2477,5.7974 164.2227,6.7824 C164.2207,6.8604 164.2477,6.8694 164.2957,6.8694 L171.4067,6.8694 C171.7187,6.8694 171.9417,7.0494 172.0397,7.3244 C172.4627,8.5394 173.8497,12.5414 174.7797,15.1614 C174.7907,15.1884 174.8167,15.1914 174.8267,15.1614 C175.7967,12.2724 177.4367,7.6254 177.6737,6.9584 C177.6917,6.9084 177.7297,6.8694 177.8267,6.8694 L183.6067,6.8694 C184.0487,6.8694 184.1957,7.0404 184.0737,7.4624" id="Fill-10" fill="#503B74"></path>
                <path d="M127.4664,19.1845 C126.7104,20.2565 124.5674,21.5225 122.8424,21.5225 C119.6434,21.5225 118.1464,19.5925 118.1464,15.6455 C118.1464,11.3365 119.3204,10.1805 120.8844,10.1805 C122.3554,10.1805 122.8424,11.1355 122.8424,13.1985 C122.8424,14.9795 121.8224,16.2505 120.3234,16.2505 C119.8674,16.2505 119.5434,16.2045 119.3024,16.1355 C119.2664,16.1255 119.2504,16.1475 119.2504,16.1885 C119.2914,17.1645 119.5104,18.3255 119.8294,18.9035 C119.8574,18.9575 119.8874,18.9745 119.9404,18.9885 C120.2304,19.0695 120.7504,19.1635 121.4654,19.1635 C123.0844,19.1635 128.1154,18.6045 128.1154,12.5285 C128.1154,9.0885 126.5784,6.3325 120.9754,6.3325 C115.3404,6.3325 112.8934,10.1355 112.8934,15.9555 C112.8934,21.8325 116.3034,25.3175 121.1314,25.3175 C124.2314,25.3175 126.6414,23.8405 127.4574,22.9015 C127.5214,22.8275 127.5344,22.8085 127.5344,22.6925 L127.5344,19.2115 C127.5344,19.1545 127.4914,19.1515 127.4664,19.1845" id="Fill-12" fill="#503B74"></path>
                <g id="Group-16" transform="translate(183.000000, 19.614300)">
                    <mask id="mask-4" fill="white">
                        <use xlink:href="#path-3"></use>
                    </mask>
                    <g id="Clip-15"></g>
                    <path d="M1.7564,4.3817 C1.8814,4.5117 2.0284,4.5307 2.0604,4.3447 C2.1744,3.6637 2.3904,2.2947 2.5044,1.7827 C2.5594,1.5277 2.7084,1.4787 2.9614,1.4277 C3.1774,1.3857 3.5404,1.3577 3.9644,1.4007 C4.5104,1.4567 4.7474,1.7697 4.7474,2.1577 C4.7474,2.6487 4.4564,3.0897 3.8744,3.3167 C3.7654,3.3587 3.7654,3.3807 3.8064,3.4607 C3.9954,3.8407 4.3254,4.2717 4.5484,4.4747 C4.7524,4.6597 4.9124,4.5757 5.0274,4.4807 C5.4734,4.1067 5.6884,3.5447 5.6884,2.9177 C5.6884,1.6947 4.9404,0.7417 3.4554,0.7417 C2.1244,0.7417 1.2064,1.7157 1.2064,2.9177 C1.2064,3.4687 1.4164,4.0237 1.7564,4.3817 M0.6994,2.9177 C0.6994,1.4227 1.8394,0.2577 3.4604,0.2577 C5.2184,0.2577 6.2144,1.4227 6.2144,2.9177 C6.2144,3.8197 5.7694,4.6407 5.1554,5.0327 C4.7824,5.2657 4.5004,5.2417 4.1054,4.8187 C3.8484,4.5447 3.3444,3.8607 3.1504,3.4207 C3.0334,3.1597 3.0804,2.9957 3.3474,2.9517 C3.8484,2.8687 4.1124,2.6117 4.1124,2.2267 C4.1124,2.1207 4.0684,1.9897 3.9334,1.9427 C3.7844,1.8897 3.3924,1.8897 3.1914,1.9277 C3.0464,1.9557 3.0244,2.0137 2.9904,2.1707 C2.8864,2.6257 2.5814,4.4537 2.5064,4.8807 C2.4444,5.2357 2.1214,5.2627 1.7994,5.0567 C1.1284,4.6267 0.6994,3.8337 0.6994,2.9177" id="Fill-14" fill="#503B74" mask="url(#mask-4)"></path>
                </g>
                <path d="M23.4581,14.5516 C23.4581,17.5106 20.8901,19.9096 17.7211,19.9096 C14.5551,19.9096 11.9871,17.5106 11.9871,14.5516 C11.9871,11.5926 14.5551,9.1956 17.7211,9.1956 C20.8901,9.1956 23.4581,11.5926 23.4581,14.5516 L23.4581,14.5516 Z M34.0461,6.9106 C33.9571,6.6316 33.6571,6.4786 33.3781,6.5696 L27.2801,8.5506 C26.9481,8.6566 26.8241,8.5906 26.5541,8.3356 C24.4471,6.1926 21.2731,4.8266 17.7231,4.8266 C11.3821,4.8266 6.2411,9.1806 6.2411,14.5516 C6.2411,14.6396 6.2431,14.7266 6.2461,14.8126 C6.2461,14.8366 6.2471,14.8636 6.2481,14.8906 C6.2621,15.2386 6.1961,15.4016 5.8491,15.5146 L0.3661,17.2956 C0.0881,17.3876 -0.0639,17.6856 0.0261,17.9626 L1.4001,22.1946 C1.4901,22.4736 1.7891,22.6256 2.0691,22.5336 L8.1681,20.5536 C8.5151,20.4436 8.6191,20.4946 8.8591,20.7316 C10.9071,22.8316 14.1291,24.2786 17.7231,24.2786 C24.0641,24.2786 29.2061,19.9236 29.2061,14.5516 C29.2061,14.4366 29.2011,14.3216 29.1961,14.2036 C29.1881,13.8626 29.2491,13.7126 29.5661,13.6006 L35.0811,11.8096 C35.3591,11.7196 35.5121,11.4186 35.4211,11.1416 L34.0461,6.9106 Z" id="Fill-17" fill="#503B74"></path>
            </g>
        </g>
    </g>
</svg>